<mxfile host="Electron" agent="Mozilla/5.0 (Windows NT 10.0; Win64; x64) AppleWebKit/537.36 (KHTML, like Gecko) draw.io/24.7.5 Chrome/126.0.6478.183 Electron/31.3.0 Safari/537.36" version="24.7.5">
  <diagram name="Page-1" id="P5j5uGYBdMLXxpFgElNC">
    <mxGraphModel dx="1932" dy="706" grid="1" gridSize="10" guides="1" tooltips="1" connect="1" arrows="1" fold="1" page="1" pageScale="1" pageWidth="827" pageHeight="1169" math="0" shadow="0">
      <root>
        <mxCell id="0" />
        <mxCell id="1" parent="0" />
        <mxCell id="dtm30QdLV3LraAzoD6yk-1" value="Network Hardware connection" style="rounded=0;whiteSpace=wrap;html=1;align=left;verticalAlign=top;fontSize=20;" parent="1" vertex="1">
          <mxGeometry x="-250" y="330" width="740" height="280" as="geometry" />
        </mxCell>
        <mxCell id="rTGMUNosR2_1sEjFmUnt-1" value="Thinkpad X13 Gen 1 (Intel)" style="rounded=0;whiteSpace=wrap;html=1;verticalAlign=top;" parent="1" vertex="1">
          <mxGeometry x="330" y="340" width="150" height="250" as="geometry" />
        </mxCell>
        <mxCell id="rTGMUNosR2_1sEjFmUnt-2" value="Intel I-219&lt;br&gt;(can&#39;t work in DOS)" style="rounded=0;whiteSpace=wrap;html=1;" parent="1" vertex="1">
          <mxGeometry x="320" y="380" width="120" height="50" as="geometry" />
        </mxCell>
        <mxCell id="rTGMUNosR2_1sEjFmUnt-3" value="USB-C Thunderbolt 3 Port" style="rounded=0;whiteSpace=wrap;html=1;" parent="1" vertex="1">
          <mxGeometry x="320" y="460" width="150" height="42.5" as="geometry" />
        </mxCell>
        <mxCell id="rTGMUNosR2_1sEjFmUnt-4" value="Thunderbolt eGPU dock&lt;br&gt;&lt;div style=&quot;&quot;&gt;&lt;span style=&quot;background-color: initial;&quot;&gt;(Intel JHL7540 TB3 Titan Ridge Controller)&lt;/span&gt;&lt;/div&gt;" style="rounded=0;whiteSpace=wrap;html=1;verticalAlign=top;align=left;" parent="1" vertex="1">
          <mxGeometry x="30" y="410" width="230" height="40" as="geometry" />
        </mxCell>
        <mxCell id="rTGMUNosR2_1sEjFmUnt-5" value="Realtek 8125 2.5GbE" style="rounded=0;whiteSpace=wrap;html=1;" parent="1" vertex="1">
          <mxGeometry x="-120" y="410" width="120" height="40" as="geometry" />
        </mxCell>
        <mxCell id="rTGMUNosR2_1sEjFmUnt-6" value="Apple Thunderbolt 2 1GbE Adapter&lt;br&gt;(Broadcom BCM57762 NetXtreme 1GbE)" style="rounded=0;whiteSpace=wrap;html=1;verticalAlign=top;align=left;" parent="1" vertex="1">
          <mxGeometry x="-240" y="462.5" width="240" height="40" as="geometry" />
        </mxCell>
        <mxCell id="rTGMUNosR2_1sEjFmUnt-7" value="Apple TB3 (USB-C) to TB2 Adapter" style="rounded=0;whiteSpace=wrap;html=1;" parent="1" vertex="1">
          <mxGeometry x="30" y="462.5" width="230" height="40" as="geometry" />
        </mxCell>
        <mxCell id="rTGMUNosR2_1sEjFmUnt-8" value="Caldigit TS3 Plus TB3 dock" style="rounded=0;whiteSpace=wrap;html=1;verticalAlign=top;" parent="1" vertex="1">
          <mxGeometry x="30" y="510" width="230" height="80" as="geometry" />
        </mxCell>
        <mxCell id="rTGMUNosR2_1sEjFmUnt-9" value="Intel I210-AT 1GbE" style="rounded=0;whiteSpace=wrap;html=1;" parent="1" vertex="1">
          <mxGeometry x="20" y="545" width="140" height="40" as="geometry" />
        </mxCell>
        <mxCell id="dtm30QdLV3LraAzoD6yk-3" value="" style="endArrow=none;html=1;rounded=0;entryX=0;entryY=0.5;entryDx=0;entryDy=0;" parent="1" source="rTGMUNosR2_1sEjFmUnt-7" target="rTGMUNosR2_1sEjFmUnt-3" edge="1">
          <mxGeometry width="50" height="50" relative="1" as="geometry">
            <mxPoint x="210" y="500" as="sourcePoint" />
            <mxPoint x="260" y="450" as="targetPoint" />
          </mxGeometry>
        </mxCell>
        <mxCell id="dtm30QdLV3LraAzoD6yk-4" value="" style="endArrow=none;html=1;rounded=0;exitX=1;exitY=0.5;exitDx=0;exitDy=0;entryX=-0.001;entryY=0.231;entryDx=0;entryDy=0;entryPerimeter=0;" parent="1" source="rTGMUNosR2_1sEjFmUnt-4" target="rTGMUNosR2_1sEjFmUnt-3" edge="1">
          <mxGeometry width="50" height="50" relative="1" as="geometry">
            <mxPoint x="210" y="500" as="sourcePoint" />
            <mxPoint x="290" y="480" as="targetPoint" />
            <Array as="points">
              <mxPoint x="290" y="430" />
              <mxPoint x="290" y="470" />
            </Array>
          </mxGeometry>
        </mxCell>
        <mxCell id="dtm30QdLV3LraAzoD6yk-5" value="" style="endArrow=none;html=1;rounded=0;entryX=0;entryY=0.75;entryDx=0;entryDy=0;exitX=1;exitY=0.5;exitDx=0;exitDy=0;" parent="1" source="rTGMUNosR2_1sEjFmUnt-8" target="rTGMUNosR2_1sEjFmUnt-3" edge="1">
          <mxGeometry width="50" height="50" relative="1" as="geometry">
            <mxPoint x="260" y="520" as="sourcePoint" />
            <mxPoint x="310" y="470" as="targetPoint" />
            <Array as="points">
              <mxPoint x="290" y="550" />
              <mxPoint x="290" y="492" />
            </Array>
          </mxGeometry>
        </mxCell>
        <mxCell id="FYX38ILZAtaCDC18SGGv-2" value="" style="endArrow=none;html=1;rounded=0;exitX=1;exitY=0.5;exitDx=0;exitDy=0;entryX=0;entryY=0.5;entryDx=0;entryDy=0;" parent="1" source="rTGMUNosR2_1sEjFmUnt-5" target="rTGMUNosR2_1sEjFmUnt-4" edge="1">
          <mxGeometry width="50" height="50" relative="1" as="geometry">
            <mxPoint x="140" y="420" as="sourcePoint" />
            <mxPoint x="190" y="370" as="targetPoint" />
          </mxGeometry>
        </mxCell>
        <mxCell id="FYX38ILZAtaCDC18SGGv-3" value="" style="endArrow=none;html=1;rounded=0;exitX=1;exitY=0.5;exitDx=0;exitDy=0;entryX=0;entryY=0.5;entryDx=0;entryDy=0;" parent="1" source="rTGMUNosR2_1sEjFmUnt-6" target="rTGMUNosR2_1sEjFmUnt-7" edge="1">
          <mxGeometry width="50" height="50" relative="1" as="geometry">
            <mxPoint x="70" y="460" as="sourcePoint" />
            <mxPoint x="120" y="410" as="targetPoint" />
          </mxGeometry>
        </mxCell>
      </root>
    </mxGraphModel>
  </diagram>
</mxfile>
